<svg width="113" height="64" viewBox="0 0 113 64" fill="none" xmlns="http://www.w3.org/2000/svg">
<path d="M0 58.7403C0 61.3282 2.14848 63.4766 4.68748 63.4766H107.568C110.156 63.4766 112.255 61.3282 112.255 58.7403C112.255 56.1036 110.156 53.9551 107.568 53.9551H99.1704V8.3008C99.1704 2.8321 96.2404 0 90.7714 0H21.4844C16.3574 0 13.086 2.8321 13.086 8.3008V53.9551H4.68748C2.14848 53.9551 0 56.1036 0 58.7403Z" fill="black"/>
<path d="M20.166 53.9551V10.4004C20.166 8.15431 21.2403 7.03131 23.4864 7.03131H88.7696C91.0154 7.03131 92.1384 8.15431 92.1384 10.4004V53.9551H20.166Z" fill="white" fill-opacity="0.15"/>
<path d="M66 21.444V15.3233C66 14.443 65.2835 13.8493 64.4033 14.0336L55.9693 15.876C54.8639 16.1216 54.2702 16.6948 54.2702 17.6569V35.6713C54.3726 36.4082 54.0245 36.879 53.3695 37.0018L50.8106 37.5341C47.5353 38.2301 46 39.9087 46 42.4062C46 44.9241 47.9447 46.6846 50.6673 46.6846C53.0624 46.6846 56.6653 44.9036 56.6653 40.1544V25.3335C56.6653 24.5147 56.8086 24.3918 57.5251 24.2485L65.0788 22.5699C65.6315 22.4471 66 22.0172 66 21.444Z" fill="black" stroke="black" stroke-width="2"/>
</svg>
