<svg width="113" height="64" viewBox="0 0 113 64" fill="none" xmlns="http://www.w3.org/2000/svg">
<path d="M21.4844 0.000976562H90.7715C93.5058 0.000993683 95.6056 0.709234 97.0215 2.10059C98.4371 3.49195 99.1689 5.56683 99.1689 8.30078V53.9551H99.1699V53.9561H107.568C110.156 53.9561 112.254 56.1041 112.254 58.7402C112.254 61.3276 110.156 63.4756 107.568 63.4756H4.6875C2.14906 63.4756 0.000976562 61.3276 0.000976562 58.7402C0.000999357 56.1041 2.14908 53.9561 4.6875 53.9561H13.0859V53.9551H13.0869V8.30078C13.0869 5.5667 13.9049 3.49196 15.3633 2.10059C16.8218 0.7092 18.9211 0.000977265 21.4844 0.000976562Z" fill="white" stroke="white" stroke-width="0.002"/>
<path d="M23.4863 7.28131H88.7695C89.8536 7.28131 90.621 7.55201 91.1191 8.04987C91.6172 8.54796 91.8886 9.31593 91.8886 10.4005V53.7051H20.416V10.4005C20.416 9.3132 20.6766 8.54612 21.1631 8.04889C21.6485 7.55271 22.4018 7.28133 23.4863 7.28131Z" fill="black" fill-opacity="0.5" stroke="white" stroke-width="0.5"/>
<path d="M66 21.444V15.3233C66 14.443 65.2835 13.8493 64.4033 14.0336L55.9693 15.876C54.8639 16.1216 54.2702 16.6948 54.2702 17.6569V35.6713C54.3726 36.4082 54.0245 36.879 53.3695 37.0018L50.8106 37.5341C47.5353 38.2301 46 39.9087 46 42.4062C46 44.9241 47.9447 46.6846 50.6673 46.6846C53.0624 46.6846 56.6653 44.9036 56.6653 40.1544V25.3335C56.6653 24.5147 56.8086 24.3918 57.5251 24.2485L65.0788 22.5699C65.6315 22.4471 66 22.0172 66 21.444Z" fill="white" stroke="white" stroke-width="2"/>
</svg>
